ply
format ascii 1.0
element vertex 200
property float x
property float y
property float z
end_header
-0.03932475151761784 0.292198639922387 0.036862545038608086
-0.07039242324858673 0.18470619233172592 0.08144177462621856
-0.05441796932802878 0.2870780540859556 0.015050783417062069
-0.14555823698398307 0.10511331498215917 0.02350189133489972
-0.009939399195250153 0.3597100683520544 0.017522214234693453
-0.011904324078373177 0.23845103102896675 -0.07989245528920758
-0.1517780881649346 0.0757798043318573 0.0569481849822234
-0.07063563620594568 0.0989376824444427 -0.1329294424149974
-0.0188579607531505 0.3438701771177719 0.02078500830960165
0.06703228626173971 0.0321699908340761 -0.17126412791146634
0.09123778510526022 0.20301547471608022 0.037099762390332996
0.10958918797571456 0.16274501378250467 -0.045416869113683714
0.02484091504189017 0.350318076186988 4.825268984232163e-05
0.17731763874212372 0.012110521305493017 -0.07856854912362714
-0.11171127831609218 0.16409931094283317 -0.03785332312223228
-0.18810238201882934 0.020380753631235572 0.02540053015666315
-0.1503335715295214 0.08370751549379257 -0.0490922724057019
0.07708921941908904 0.12125014235931922 -0.11611469774766024
-0.0809222623807872 0.23682647120304928 -0.010391707087257677
-0.10705727547527717 0.10348470222631034 -0.10256251859848987
0.17346387352073422 0.03623594407336124 -0.05469329647436168
0.0032401098736253276 0.3718234165062649 -0.013710640114585912
-0.1350161180895989 0.11376468325318508 0.04746906354988328
-0.10402267009139426 0.17730729394268985 0.03971516637052953
-0.007187648882344579 0.38316723219879684 -0.004378723730316461
-0.004174913756674436 0.391373077396998 0.001084455404282409
-0.17927969317674572 0.03622260164780022 0.030696750681882955
0.003905199846747569 0.0897028598649134 0.1550994139516986
0.03522157365472273 0.30650125923821137 0.030739947629997377
-0.08863002683723623 0.008612608674628985 -0.17447275106718116
-0.03948244147275522 0.31839866598035305 0.01028743135077745
0.07756856871252621 0.21155079857895004 0.05349198563287745
0.1954714266369041 0.008839912870578592 0.006517270080912974
0.0025946611300283026 0.3563570865230837 -0.02166664966737409
-0.058823975077822624 0.27115110253328933 -0.026272600758973814
-0.06337240475370688 0.0684389090085177 -0.15318984163644095
-0.11071666571630202 0.16515318742087315 0.03911618945281502
-0.012651552981340963 0.372682303299693 0.005148042872083923
-0.04284021881680851 0.078740787928631 -0.15481145302240137
-0.06195553376891677 0.26472694141877023 -0.027133225571037773
0.09302811669693123 0.20650721150634546 -0.026563778036730414
0.049292379331393396 0.21403719389786097 -0.07884036182816175
0.09078987998133332 0.2110810014759481 -0.02607287275709706
-0.17589028432670462 0.04807641432438428 -0.005016016164908145
0.055086621957526616 0.23819049720919888 -0.059254053698123615
-0.03283783257166127 0.33192177691063773 -0.008963139335455339
0.11615837087314583 0.16659836307161588 0.011238945960766107
0.0035487173201930082 0.3923039237707928 -0.0014879525237063574
-0.015942727141349637 0.1610145305797116 0.11842441935599843
0.0848205874747796 0.0730873716557182 0.1397262845107351
-0.10561640149633278 0.18737885003086374 0.012129059671504667
0.013905406100515938 0.37205205855715695 -0.0013825841395301017
-0.04027426248827995 0.29921088008074065 -0.0302918380847026
0.08043751886085888 0.19878634417280822 0.060427968543919054
0.00697779415255703 0.3188707078501817 0.03995999124057943
0.04113009369950461 0.3176797120258191 0.0015725283170705839
0.03652171111386297 0.3096563699029764 0.026583030152570925
-0.019812672300124658 0.2927499266048347 0.049830739279534686
-0.07005946515232545 0.16487728399909896 -0.09440521297831063
-0.13222315132841328 0.13318432886600676 0.01773947134089197
0.005026543006327383 0.3754815423338393 0.011181348621135576
-0.009520694995562773 0.20740741519252714 -0.0958244869410078
-0.06343071620661378 0.27309460246292033 0.0016700965622034611
0.017266626876888243 0.3641699624659174 -0.004776137950034841
0.10084083173445542 0.1908727441883399 0.027652828714837305
0.022509208513986526 0.3329607144129634 0.024837511652316183
0.005911029094342534 0.25603786299843784 0.07173795339678972
0.10919765037622037 0.10749815849038571 0.09728928499039151
0.04074799675756463 0.3116891954473124 0.017008830366349478
0.03642900313043847 0.0014268690432595488 0.19592871895433617
0.11569956615547383 0.16855816478852523 -0.0022228726794398133
-0.02965110054656605 0.33985817208317115 -0.0050072050758676505
0.06958697463471375 0.022346037671748586 -0.17553712364267793
-0.055879475386285335 0.20530656599731967 -0.07971115067223998
-0.017577194033331977 0.3502258496777457 0.017618421041347358
-0.02644694078415505 0.34689999762078144 0.0023370678911086252
0.040309036533461115 0.21277726129991642 -0.08448828347962836
-0.019385382697319226 0.2729615085991601 0.06048885444467269
0.1032052518505874 0.18750140154889483 -0.02525053616020535
-0.0037215151778838976 0.3687050481919753 -0.01519848107369376
-0.12587146635382063 0.05375538215491345 0.11886003451375707
0.00599515112312671 0.1868498622297323 0.10640631311572589
0.09561360472696709 0.1081057462105441 0.11026605298069357
0.0891979074586599 0.05507223706635096 0.14760597452542104
-0.02672560807839874 0.25562275947600466 0.06705921836832525
0.07503512162189754 0.07783136593039078 -0.14254082824845832
-0.043574619896409074 0.2897448541324188 -0.033768354985901715
0.02167435483375181 0.2951410110762601 0.047739650523101564
-0.13208636992623865 0.04986816485111443 0.11489676399224842
0.08694619777712231 0.22123365982243512 -0.02072944252076611
0.022084074892603524 0.15300685696411245 -0.12150595381636442
-0.0021724047535449896 0.3068732103500712 0.046512690689878365
-0.037742388101633384 0.31016124184591987 0.02435698579571183
-0.19186073317279007 0.015289087538261237 -0.013786972408232644
-0.0032687599666716884 0.3449492951283063 0.02733057326507926
-0.0075807534702891375 0.3382933560439096 -0.02990751835080316
0.17145759078358994 0.03215216138159773 -0.06656051875357154
-0.003153237021259135 0.18177836068752745 -0.1090652468128298
0.012667664040274846 0.3367476635711203 -0.028978350603351702
0.09412209138234723 0.15989006293423005 0.07452668906670337
0.009190972931097215 0.21647259577380285 0.0913022619768061
-0.036553038578872175 0.19217438407294596 -0.09727151191133163
0.09522591910659547 0.16365390518196243 -0.06997780694076042
0.11325912028635318 0.1625868098526831 0.03554753698841732
-0.10158251885387415 0.12352027942181071 -0.09376167039921332
-0.00031969309050107 0.2863823286642632 0.0568079361204644
0.014408047899216923 0.3437567961595125 -0.024150210150111106
0.05754881748045334 0.27732250708339057 -0.021226761968742635
0.0230246579321618 0.2707517940827001 -0.060383274259658434
0.17602072789458395 0.024976731660750054 -0.0646321615020271
-0.01859387936628424 0.3610394198532326 -0.005809419201197362
0.01629575351928809 0.3674074420765011 0.00013086343174363522
-0.037833349378085405 0.06910592799132949 -0.16106321553183875
0.05586835334018713 0.23303148016746955 -0.06203506064172527
0.014217865089880892 0.3267202682297872 -0.03376880341919934
0.12815961949156177 0.12505696584559067 0.04973459499469436
-0.04898000071138536 0.26248622645467623 0.048254212344429975
-0.022279327264959667 0.3277808158233859 0.02841714653874933
0.027452077018487387 0.32730743637400694 0.023820908232072075
0.0013518324145964519 0.35995165965532666 -0.019978486935039515
-0.0476450862347394 0.2976087636090807 -0.018733314712018435
0.0185440262100125 0.2248571771611205 0.08558546132325955
-0.012031611774543162 0.37118033542032247 0.007929917069424806
0.11432803924070968 0.15622405148377105 0.04225846320113319
-0.17306432655293258 0.030343290048118688 0.06488651383679231
0.011095386993733209 0.349037436009744 0.022938790717353226
-0.050299932629415546 0.29876048228327073 -0.005681264327176071
-0.07650489391209397 0.2019837786244963 -0.06284590033930115
0.00511433271175901 0.2614662377836793 -0.06907781423413349
0.08071979726243407 0.010470295595951563 0.17725028062936285
-0.12229700357827529 0.12512709541552383 -0.06270742646969302
0.13341155557074202 0.13124244180773723 0.016093884290676746
-0.04764026657706377 0.1837840451173437 -0.09704503999134123
-0.12898018523834653 0.11058301350722273 -0.06560990651968594
-0.020799101833683258 0.35802719292952573 -0.0027975875778763707
0.01395178499888067 0.37209639573906683 2.18639589481577e-05
0.07258660181185551 0.24672388520973768 -0.024588149151706266
0.017697746407478343 0.09413642967242888 0.15190431424248244
-0.019081397703511593 0.18057430385987563 -0.10804077606776515
0.05889100315239705 0.11696070195976685 -0.1286843456154685
-0.007032744880684515 0.0362155841271913 0.18175619881430008
0.07326922591380072 0.18722530096888446 -0.0771355214602059
-0.12241835868127199 0.023408869249119002 0.14306979205213177
0.05455354069463993 0.027467981035081836 -0.17809811196696557
0.09160999625026221 0.21668964508045738 0.0028775236244236576
0.0028066945656784748 0.17084784064260755 0.11454169764829722
-0.07529036006443872 0.16866548057224928 -0.08780818100316318
-0.09625222903444312 0.2003594759168014 0.02644982268285854
-0.0618129145230726 0.19146961187198108 -0.08396662605683805
0.0005743559134585488 0.28543089236951663 -0.05728167439151894
0.0013621734841874923 0.2675286338130823 0.06622167468628447
-0.04457533542047837 0.20383156270720432 0.08737020899383398
-0.02288467911235183 0.1908824603155618 0.10202366300443655
-0.007185645787157364 0.38176249680072516 0.005614100583120867
-0.11070917928835396 0.17854243108704757 0.002083585493295474
0.0813307539899793 0.22280658589759766 -0.035138084121616904
-0.13816476247948795 0.11826005708195148 -0.027474483941522798
-0.1675010494388646 0.06486255302783515 -0.004761882782491461
-0.005590788155001744 0.3822260866808365 0.00690804505451264
0.06752572903263336 0.03992764859316083 -0.16689308098457512
0.05401847160915022 0.29020357192772983 0.009788699064162269
-0.0035191312611215202 0.3840805109395952 -0.007139555178936876
-0.08347074300221605 0.10388205474430245 0.12228693486334538
-0.13560896474666245 0.12874800777389087 0.0021493026768588173
0.14807059105452783 0.1030258205230315 0.01111377000695365
-0.0628829173284726 0.05849855072557051 -0.15874995644848036
0.0004892828290847394 0.38564522951785296 0.007160688599006602
0.10173832481865563 0.18450081252377482 0.035486451130284
-0.10630968548900764 0.11079430722088564 -0.09802159943191172
0.13266234929415274 0.11325534213553895 -0.05437210482598519
-0.024341910207939365 0.34407088397561886 0.013765460843930715
0.0549794417970967 0.2102035738388743 -0.07734941386696843
-0.07591647751846684 0.24572484269592443 0.013670935647841964
0.10799367456009534 0.13025953085052908 0.0807919948339709
0.18769942524194405 0.018390763294022252 -0.03428305920820947
-0.009237225946720298 0.23132114347060964 -0.08383205125025214
0.05925310025480176 0.21670609234936938 0.06991590845904737
-0.008418949647010107 0.10199933054749839 0.14876229708960498
-0.08676020975419582 0.12893326091724397 0.10412473415403127
-0.054753982375158224 0.27469033699861356 -0.030457007805119698
-0.019525416708137837 0.3554366871788461 -0.010734538405193676
-0.010356907870323753 0.3474581926432361 -0.02414321518448711
-0.006304979250000382 0.3850060580197208 0.004056083170259121
0.008292898357796303 0.2260971015392842 -0.08655508280908042
0.1009987513196849 0.16808265199181607 0.05697074958829067
-0.11393021149731099 0.16423911569960842 -0.030260627054039178
0.010139826759679262 0.3739011869459803 0.008214068662414493
-0.0425694206931427 0.05883343104853145 -0.16518626263820949
0.04727184596879587 0.04592582685858342 0.1706092101855785
-0.0008752503830658493 0.39824162279245123 8.312260793474414e-05
-0.05394668338622181 0.08059379218854229 0.1503157900845775
0.037091190277116444 0.3235207091396842 0.009301294880334588
0.0032506261571600722 0.22156078898137166 0.08916036920529229
0.0051777704148333985 0.24881036564693854 0.07541728633068405
-0.04421853818950541 0.31008325661573155 0.008122565210039763
-0.05296704801810032 0.07817539776551637 -0.15194492579580984
0.15301441998676427 0.02993531315535618 -0.1040363176418225
0.14059325050468782 0.0479045641894917 0.10595440949849158
-0.04444685847935382 0.22944191558632007 0.07278043563370781
-0.028299636476085868 0.3212116392854748 0.02740496344354295
