ply
format ascii 1.0
element vertex 150
property float x
property float y
property float z
end_header
-0.016997280671221957 0.11056365586529414 -0.14371653271735885
-0.15730814076246116 0.044896536523647335 0.08233326358819407
-0.11523360700505636 0.1587546348292563 -0.035651751299138126
0.12301269428882648 0.12462272560941967 0.061854974387675246
-0.02134838392567826 0.2324018458534662 0.08103413985532992
-0.12071672111390942 0.04044155456493397 0.13322177811614344
0.1675445385858232 0.06490237937982135 -0.0011964223292398031
-0.05265131286765145 0.1553600929664632 -0.11040837958079572
-0.13971682017887097 0.032272579555596974 -0.11952018279679263
0.08216865951102961 0.22739698134994552 0.02638677520915067
0.03986300120619197 0.3072097333743433 0.02373709185958238
0.026965266591801946 0.33413667543009423 -0.018904200022302958
-0.043135588020373594 0.31263100926634907 -0.006903345680957822
0.018851594092596718 0.2855232289636914 0.05404489038653727
-0.17023690771732447 0.05838223143150776 -0.013966753426338534
0.06844507237424306 0.05005341134873773 0.16103082249944753
0.0010826190455180001 0.3953945114773717 0.0020323796730180588
0.12273316988167815 0.14355526756475126 0.03711528269111945
0.05938760717694873 0.2570068572208891 0.03981044880754584
-0.01552019405352607 0.35099774411569995 -0.01895860878277992
0.10726271994067622 0.1439451926174041 0.06989796139275185
-0.0016499205444614044 0.13568369428421986 0.1321478532894364
-0.023166868476919237 0.3481698253980408 -0.01161412737964071
0.051433138747793004 0.2851829430246992 -0.02550237992163953
-0.08350404618986279 0.2306625559271471 0.013995240662557711
0.022210886654735966 0.08492105080043695 0.15596590195034837
-0.00716765468759634 0.06928087854632255 -0.1652041435619956
-0.09281017125592007 0.19484843978456345 0.043681377910429545
-0.10723513638986885 0.0338553382282103 0.14837824591037865
-0.15159899686115108 0.07377651807803574 0.060192891523960186
0.09760199127702855 0.18199637198502533 -0.048530884554906964
-0.05406258367582487 0.0947806002975379 -0.1427128499294204
0.0327828903973326 0.32893650654305284 -0.01370354416831178
-0.05819755065478174 0.2231000780246312 0.0666066115074698
-0.1720767184273774 0.01920034630363454 0.08149660753113007
-0.06070096051541486 0.12410796393592181 -0.12387290778617292
-0.1241039141972751 0.004587066657214623 -0.15390277919713435
0.05780771662239871 0.20136695707881938 -0.08075914396485606
-0.09270116954995233 0.21112323792373605 -0.018030556762740194
-0.02533408144876222 0.24777128534548926 -0.07177450597871501
-0.06802035769716124 0.21738666356270225 -0.060910907068772696
0.0010703713448709622 0.2433697137468428 -0.07830782814074574
0.05302062145022464 0.2894805809750835 -0.015570780212733377
-0.12556987825444058 0.14012113708873747 -0.03341349311547159
-0.1481330607071692 0.041014176911525625 -0.1013622297512909
0.020821286491353067 0.26366591677766776 -0.06490931821289952
0.0035014804611786534 0.35521736618254507 0.02211584742864378
0.004969185929620058 0.38900361179344967 0.002353153117448131
0.0005594866514719571 0.39834574795614597 -0.000609189742997636
0.0776294682808961 0.023525818980377224 0.17148430802270007
0.05183440059994832 0.20028433832541848 -0.08535093024667662
0.03981019962612037 0.2144432472239576 -0.08380319284446015
-0.0059466909946807546 0.16577141174974505 0.11696321966601575
0.0074180361348045 0.36036098095368635 0.018378947130922356
0.1685255210301999 0.06142697576068761 0.016033463354439472
-0.07866226801122501 0.21689388505945875 0.04684239451058073
0.04679146971792165 0.27229459941899714 -0.043447965384185966
0.06611360158102729 0.18722902987369128 -0.08334784411193746
0.05524733825585188 0.28856001705534967 -0.007242172693292645
-0.018517192559613763 0.13087804901629774 0.13328079270858478
-0.05495528873641552 0.2765318803042109 0.02812490684785695
-0.03114055245702357 0.1920366796546686 0.09920913085465015
-0.004333767914078578 0.30778722798069846 0.045902257967749514
-0.022542951672967878 0.28175220911447546 0.05465757351179178
0.10629157651329589 0.07891691271767996 -0.12031495333916167
-0.08461254473933422 0.21863861950911623 0.032614488438789696
-0.03930260120150871 0.30014689263010386 -0.030789061396073257
0.007907144570769437 0.36960394672244123 -0.012979101604117258
0.002917512970872822 0.3933581305372009 0.0015864190981593467
0.03080940826047792 0.17020187234147122 -0.11069135120451178
0.0028264331591457427 0.29748797069147925 -0.051178025693012386
0.017881457814441427 0.19769945743791673 -0.09955717375788985
0.1632606930126877 0.013086619127388356 0.10378553459700254
0.031143245037280744 0.18965149287402627 -0.10045756268733254
0.017228184640873466 0.33940236125759915 -0.02492404680762342
-0.04308518452953037 0.3109071377283187 -0.011315979895550889
0.0798816273093726 0.11301719383438531 -0.1192002868162623
-0.08121680222730278 0.21172766385849712 0.04759673491969751
0.03529370385802138 0.30058027905043716 -0.03500606656573292
-0.17304562143729343 0.01720224674984916 -0.08178473497372096
0.029019725739733417 0.07630303448802014 -0.15922558490521124
-0.13179747637090397 0.13051170043053167 -0.028025187304849354
0.05752347855279461 0.06074771504771408 0.15957467727218794
0.012174625388470268 0.37335881534443394 -0.005405245287071406
0.04171223214175031 0.3146485309174519 -0.009017095341074416
0.052434138471066406 0.2943776464001795 0.00629932677263321
-0.0919920156181612 0.03194614317569444 0.15938437640910602
-0.1361602449709766 0.03636261627693034 0.12049242465683643
0.031397610246545825 0.2937356948816047 0.042862754302306
-0.08906135656162864 0.07916189114903172 0.13342543906680202
0.027071521290064807 0.28204393505621683 0.052397910734084306
0.03163106371169311 0.11964871030338897 -0.13656019631321967
0.18719142406418632 0.024572095819957163 -0.013996376891068247
-0.14331888497008252 0.10888323235718965 -0.025435021360945685
-0.02837917918670015 0.3254521598100363 0.02416541553411111
0.013249966390196778 0.04752923449634414 -0.17573658846222645
0.05095157390808367 0.20705578016943368 0.08191950383025744
-0.08140581205682906 0.06140440766432929 0.14844136064673535
-0.021532510219329004 0.10164929701035447 0.14761313118167507
-0.031880748021571634 0.321283471442391 -0.02308009689375839
0.005964170928877976 0.31303096472607195 0.04307356427381606
-0.014793065478874113 0.01709631194255339 -0.19087947452708565
0.1490809004792522 0.06948691497453967 -0.0713064510094079
-0.01828730544460008 0.14951916911826355 -0.12389808763405984
0.11257636598218917 0.1728600796258144 -0.014989919250684733
-0.16406214164624733 0.0259739640791556 -0.08976348124438957
0.10495796835680861 0.18598901973162146 -0.02083266179030519
-0.08408130258025036 0.187536790273268 0.06492679283820132
0.006276653088379982 0.38646024921421596 0.0025366984139655302
0.0285313783205055 0.2194728849292608 -0.08563568339234043
-0.13557479066463304 0.12866918031950353 -0.004957778067184325
-0.0249578840091563 0.3019969234733193 0.04216935828251494
0.09170533805938358 0.20847831380035586 -0.027572994806566
0.11948530345399916 0.012513936105274138 -0.1525110641450732
0.03475526358011918 0.28333172789186095 0.04685021966491872
0.0542880973879585 0.18885454702276072 -0.09054503332726996
-0.03422027281865127 0.30796080069678555 -0.030769733185571902
0.04600776915258622 0.2231530724297951 0.07551154961565591
-0.0087243460255326 0.34566314444117585 0.0257295405017638
0.043712169849606415 0.2471864908425781 -0.06266768188061952
-0.06181802689961677 0.12340475691692165 -0.12371242328192049
0.1379256005018204 0.056505505953744574 -0.1023408304941654
0.011403841670031703 0.1798006899243505 0.10950747204922986
-0.015109503511667887 0.36195918883945377 -0.011553299618246748
0.0016458909823949285 0.396677797720706 0.00022427632556216607
0.11636718124483036 0.10802245043882511 -0.08815555280905386
0.12398658194957929 0.13338038395624738 -0.04897787675358922
-0.04293120167235966 0.2348368191978858 -0.0705452407759386
-0.05586647980053606 0.2761313354039482 -0.026735705562011883
0.00897997551391931 0.3820360885249669 0.00018859650080636038
-0.0480812267519039 0.22138182032954656 -0.07526160482761843
-0.0019379207019137575 0.38925137738114196 0.0050127522783148595
0.03687837605537951 0.17472743570324378 -0.10642799178659275
0.10103471275942283 0.15872435384079303 -0.06592018791695482
-0.14419403589306407 0.05877636451644213 -0.09119469483486278
0.007957474539388583 0.37002384047694464 -0.012701225684669122
0.00944109038624192 0.3576759214782742 0.01893931672466337
-0.022405847468865696 0.35144388781599645 0.009348904043165128
-0.03691887047662194 0.0033348058989883357 0.19486614907553526
-0.0726667974044442 0.13771992835809335 -0.10916613737832066
0.015244897597435943 0.3247325053073749 0.034407732220676494
-0.031804144330268534 0.3346993385002127 -0.0073851541281749105
-0.15766095366546434 0.05065887458194265 0.07518529887142188
-0.10418714181537168 0.13840249477626934 -0.07907814593908723
-0.0013221037263274704 0.256291007545773 -0.07184233201803168
-0.05095006151774204 0.2942221651904151 0.014189038571702442
0.13872994503425087 0.0779319267425021 -0.08176773999410153
0.050763348263588644 0.29341338872186234 -0.016225254975155767
0.007275040256297388 0.38465523092640513 0.002437062524791043
-0.007623534410516915 0.3747423223799193 0.010068231859748096
