ply
format ascii 1.0
element vertex 100
property float x
property float y
property float z
end_header
-0.15747283749846164 0.06031146478510557 -0.0783228365809756
0.129292460960646 0.1379330208775158 0.06525533785125057
-0.0029092220531840595 0.4670648048780231 0.012848842729246013
0.001124683914719197 0.49077358143737737 0.0035150211963521773
-0.0021783976286776454 0.41273632145502653 -0.03483742985186258
-0.05418501430371574 0.07813816037389926 -0.15980854201869496
-0.0006099782634884031 0.45949254808133233 -0.016191495059721304
0.01252831294827415 0.3882762958134708 0.04289744919008076
-0.005932068692528063 0.47289652943371957 -0.009074483991119557
0.031454224826289685 0.38365992266003196 0.03429626679177168
-0.0611360364305581 0.10919950105245113 0.14386934991854927
0.03833837116158034 0.4011658015835773 0.009647854732301654
0.043058543821476364 0.05865061147466627 -0.1712081979469551
-0.1586183144080498 0.04867408848423532 -0.08620581696866406
0.09577034004301477 0.11810395683407349 0.11900914256380442
0.030041620781730387 0.22134733233545767 0.10733624966551256
-0.06592350278220997 0.3130975931301299 0.03526036488642776
0.041898526613234864 0.2564174954990964 -0.08796421606238121
-0.021392093530412996 0.4420084376412478 -0.008970046998511741
0.006790813153616504 0.2679069018827097 -0.09258854058522475
-0.024472080244742032 0.4339167092059996 -0.009991871698596479
0.06116888258332045 0.07349815404796123 0.15925758926841577
-0.04600949334243896 0.37931227401908524 0.014615432760037074
-0.12435886888063635 0.12920614785428974 -0.08082675706087353
-0.04884787215285984 0.3742601561621127 -0.01198193301091542
-0.05533523296022252 0.3452303280437868 -0.0277596147384527
-0.017024633265341975 0.13177408755369852 0.14630315607561725
0.14562427977652884 0.13236086278020648 -0.02046789618113016
-0.033639586729101695 0.18604195934827733 0.1209938941065798
0.10360446738618778 0.17606047343716758 -0.07782033819500322
0.03492428068485923 0.22418484869257665 0.1046524450223838
0.011736184405785518 0.4658292186238877 -0.007006050497252131
0.11074647305651562 0.001584563033587727 -0.16577723111021492
-0.14772300671123245 0.12174446294183638 -0.03271503474885425
-0.13204764824201742 0.16228532848668753 0.02848877832774783
-0.09961452872342946 0.24497911542521222 0.021969294897611208
-0.0912772501004109 0.268998125348188 0.014365312002573115
-0.0774097181557385 0.21477419785851515 0.08381131694592137
0.0019244336238070016 0.45400881988954533 0.01829553877041958
0.009738730495706812 0.47132564990640885 0.006059048180891378
0.12467011789126282 0.18363857842243142 0.021699989746344215
2.4433202961359255e-05 0.49977189464631055 -8.790987984370653e-05
-0.14916687321665603 0.07784887519759814 -0.07913972126735952
-0.1522982624076914 0.07411153500713219 0.0763295277453946
-0.009700874167246656 0.4570579569137933 0.01417519279227156
-0.14570714188725367 0.12915461870997907 -0.027814318163677614
-0.02521204077554855 0.416438939951516 0.02194413636852208
-0.025686508217251203 0.33846076455058655 -0.05929073477313342
0.06391782679600928 0.1813173098183694 -0.1102900564017425
-0.0027433546498255106 0.21276227696069683 0.11486233295190304
0.06507975707931993 0.18795630254061801 -0.10650834839746731
0.18320143622304197 0.03971069735143967 -0.018325733465440405
0.1597457042479576 0.05391417798693099 -0.0794991803133601
-0.022257948528409795 0.4419898393051194 -0.006558378330197111
0.042206109892577726 0.39448038229826865 -0.00038293984224531
-0.01865983597734666 0.3412749306733636 0.06068602922038815
0.00014824280343616212 0.4943074159209207 0.002272202946660207
-0.0187511743414242 0.2261634187867868 -0.1079176962990965
0.02267786421538458 0.26780743542164515 0.09006584481313845
0.10748878327705261 0.11372559133397803 0.110992920837612
0.1041312016262696 0.2168124437744811 0.04458613650033176
-0.16254390488104853 0.07270054476083698 0.05284932258459259
0.12439917078758418 0.17943617292437442 -0.0310907231189774
0.0026976019138025592 0.4671299692658706 0.012868301021839161
-0.01011342628926543 0.2783051562263979 -0.08809934851983806
0.034495333565752996 0.38956401161700266 -0.02759436839299205
-0.020456268256725814 0.31682206215236836 0.0703577017480432
0.185279694559913 0.03041534223915182 -0.03087061568036843
0.011602102037146199 0.45357705065273946 0.0144984711088921
-0.0724729912687234 0.29941045993473353 0.03443038933760063
-0.08201780632982612 0.03859270122908981 0.16533768687838238
0.11766245492349442 0.19585391805566638 0.030924439644251216
0.030851230667595177 0.33592735507737936 0.0579255972450827
-0.02172731819557387 0.2301861703404327 -0.10571586480807034
0.023737130495400383 0.44054223180497115 -0.001478116247708126
0.10867227395562502 0.19763570802566827 -0.05308675242558934
-0.17766611122575543 0.04893958832962575 0.03142661480524268
-0.10728221396575427 0.2143742961045747 0.03928935482706823
-0.017948397656507215 0.4409267494334895 0.01536876217406217
-0.02045320022516094 0.4446868093375542 -0.00843768038924734
-6.602120363161913e-05 0.49978073694605046 5.773566110643114e-05
-0.13497592604795455 0.03872150536905039 -0.12580125327251834
0.13257565089512482 0.07715354328248519 0.10503121889754082
0.15954786670287663 0.0963377807947588 0.024807018860660064
-0.016572819855801738 0.44874662009855215 0.01206843296533091
-0.07448730243876321 0.30815751081062903 0.01844473585433112
0.07438277007635698 0.24789545972445104 0.06809020041221171
-0.059789119402777265 0.259122486610922 0.07555645196858647
0.08127750886517145 0.20288567197819884 0.0867079833648979
-0.08189413825491831 0.045989960369923255 -0.1620906187694678
0.050979284521410824 0.3711593146788562 -0.007556460859990104
0.07982487788375957 0.29316801760532424 0.021741754792396737
-0.005090466361923079 0.4049654104137388 -0.037671459582431725
-0.1030365009324476 0.1413245006924957 -0.09983575353627443
0.1655382568831033 0.05771740988969182 -0.06241240125530312
-0.012882178421532376 0.10184214008847714 0.15874129426399303
-0.07435890897520174 0.27399068883085964 0.051415815209345406
-0.04722513384929838 0.28317614890626913 0.07274475869376759
0.012271089880042007 0.4293549575606211 -0.02545458458819932
0.15740573035691222 0.07843956118193224 -0.060477670449878826
